<svg width="22" height="16" viewBox="0 0 22 16" fill="none" xmlns="http://www.w3.org/2000/svg">
<path d="M11.0507 16.0002C8.8174 16.0002 6.9174 15.2252 5.35073 13.6752C3.78407 12.1252 3.00073 10.2336 3.00073 8.00024V7.82524L1.40073 9.42524L0.000732422 8.02524L4.00073 4.02524L8.00073 8.02524L6.60073 9.42524L5.00073 7.82524V8.00024C5.00073 9.66691 5.5884 11.0836 6.76373 12.2502C7.93907 13.4169 9.36807 14.0002 11.0507 14.0002C11.4841 14.0002 11.9091 13.9502 12.3257 13.8502C12.7424 13.7502 13.1507 13.6002 13.5507 13.4002L15.0507 14.9002C14.4174 15.2669 13.7674 15.5419 13.1007 15.7252C12.4341 15.9086 11.7507 16.0002 11.0507 16.0002ZM18.0007 11.9752L14.0007 7.97524L15.4007 6.57524L17.0007 8.17524V8.00024C17.0007 6.33358 16.4131 4.91691 15.2377 3.75024C14.0624 2.58358 12.6334 2.00024 10.9507 2.00024C10.5174 2.00024 10.0924 2.05024 9.67573 2.15024C9.25907 2.25024 8.85073 2.40024 8.45073 2.60024L6.95073 1.10024C7.58407 0.733577 8.23407 0.458578 8.90073 0.275244C9.5674 0.0919109 10.2507 0.000244141 10.9507 0.000244141C13.1841 0.000244141 15.0841 0.775244 16.6507 2.32524C18.2174 3.87524 19.0007 5.76691 19.0007 8.00024V8.17524L20.6007 6.57524L22.0007 7.97524L18.0007 11.9752Z" fill="#4275F6"/>
</svg>
