<svg width="24" height="24" viewBox="0 0 24 24" fill="none" xmlns="http://www.w3.org/2000/svg">
<path fill-rule="evenodd" clip-rule="evenodd" d="M12 1.99951C17.523 1.99951 22 6.47651 22 11.9995C22 17.5225 17.523 21.9995 12 21.9995C6.477 21.9995 2 17.5225 2 11.9995C2 6.47651 6.477 1.99951 12 1.99951ZM12.47 15.5295C12.6106 15.67 12.8012 15.7489 13 15.7489C13.1987 15.7489 13.3894 15.67 13.53 15.5295L16.53 12.5295C16.6705 12.3889 16.7493 12.1983 16.7493 11.9995C16.7493 11.8008 16.6705 11.6101 16.53 11.4695L13.53 8.46951C13.4613 8.39582 13.3785 8.33672 13.2865 8.29573C13.1945 8.25474 13.0952 8.23269 12.9945 8.23092C12.8938 8.22914 12.7938 8.24767 12.7004 8.28539C12.607 8.32311 12.5222 8.37925 12.451 8.45047C12.3797 8.52169 12.3236 8.60652 12.2859 8.69991C12.2482 8.7933 12.2296 8.89333 12.2314 8.99403C12.2332 9.09474 12.2552 9.19405 12.2962 9.28605C12.3372 9.37805 12.3963 9.46085 12.47 9.52951L14.19 11.2495L8 11.2495C7.80109 11.2495 7.61032 11.3285 7.46967 11.4692C7.32902 11.6098 7.25 11.8006 7.25 11.9995C7.25 12.1984 7.32902 12.3892 7.46967 12.5298C7.61032 12.6705 7.80109 12.7495 8 12.7495L14.19 12.7495L12.47 14.4695C12.3295 14.6101 12.2507 14.8008 12.2507 14.9995C12.2507 15.1983 12.3295 15.3889 12.47 15.5295Z" fill="black"/>
</svg>
